<mxfile host="app.diagrams.net" modified="2022-06-29T02:23:34.133Z" agent="5.0 (Windows NT 10.0; Win64; x64) AppleWebKit/537.36 (KHTML, like Gecko) Chrome/102.0.5005.124 Safari/537.36 Edg/102.0.1245.44" etag="4czm9FvpkuoFG5ngsJ3C" version="20.0.3" type="github">
  <diagram id="m4DaekiL_GEVx1A_Rdox" name="Page-1">
    <mxGraphModel dx="1771" dy="684" grid="1" gridSize="10" guides="1" tooltips="1" connect="1" arrows="1" fold="1" page="1" pageScale="1" pageWidth="827" pageHeight="1169" math="0" shadow="0">
      <root>
        <mxCell id="0" />
        <mxCell id="1" parent="0" />
        <mxCell id="c3yrty8Hjv15ZuBxM9Lw-1" value="ea60" style="rounded=0;whiteSpace=wrap;html=1;fontFamily=Lucida Console;fontSize=16;" vertex="1" parent="1">
          <mxGeometry x="190" y="170" width="90" height="20" as="geometry" />
        </mxCell>
        <mxCell id="c3yrty8Hjv15ZuBxM9Lw-2" value="0" style="text;html=1;resizable=0;autosize=1;align=center;verticalAlign=middle;points=[];fillColor=none;strokeColor=none;rounded=0;fontFamily=Lucida Console;fontSize=16;" vertex="1" parent="1">
          <mxGeometry x="220" y="110" width="30" height="30" as="geometry" />
        </mxCell>
        <mxCell id="c3yrty8Hjv15ZuBxM9Lw-3" value="POC:" style="text;html=1;resizable=0;autosize=1;align=center;verticalAlign=middle;points=[];fillColor=none;strokeColor=none;rounded=0;fontFamily=Lucida Console;fontSize=16;" vertex="1" parent="1">
          <mxGeometry x="25" y="110" width="60" height="30" as="geometry" />
        </mxCell>
        <mxCell id="c3yrty8Hjv15ZuBxM9Lw-4" value="before decode&lt;br&gt;current frame:" style="text;html=1;resizable=0;autosize=1;align=center;verticalAlign=middle;points=[];fillColor=none;strokeColor=none;rounded=0;fontFamily=Lucida Console;fontSize=16;" vertex="1" parent="1">
          <mxGeometry x="-75" y="155" width="160" height="50" as="geometry" />
        </mxCell>
        <mxCell id="c3yrty8Hjv15ZuBxM9Lw-5" value="after decode&lt;br&gt;current frame:" style="text;html=1;resizable=0;autosize=1;align=center;verticalAlign=middle;points=[];fillColor=none;strokeColor=none;rounded=0;fontFamily=Lucida Console;fontSize=16;" vertex="1" parent="1">
          <mxGeometry x="-80" y="440" width="160" height="50" as="geometry" />
        </mxCell>
        <mxCell id="c3yrty8Hjv15ZuBxM9Lw-6" value="ea60" style="rounded=0;whiteSpace=wrap;html=1;fontFamily=Lucida Console;fontSize=16;" vertex="1" parent="1">
          <mxGeometry x="388" y="170" width="90" height="20" as="geometry" />
        </mxCell>
        <mxCell id="c3yrty8Hjv15ZuBxM9Lw-7" value="1" style="text;html=1;resizable=0;autosize=1;align=center;verticalAlign=middle;points=[];fillColor=none;strokeColor=none;rounded=0;fontFamily=Lucida Console;fontSize=16;" vertex="1" parent="1">
          <mxGeometry x="418" y="110" width="30" height="30" as="geometry" />
        </mxCell>
        <mxCell id="c3yrty8Hjv15ZuBxM9Lw-8" value="m_pcPic" style="text;html=1;resizable=0;autosize=1;align=center;verticalAlign=middle;points=[];fillColor=none;strokeColor=none;rounded=0;fontFamily=Lucida Console;fontSize=16;" vertex="1" parent="1">
          <mxGeometry x="85" y="165" width="90" height="30" as="geometry" />
        </mxCell>
        <mxCell id="c3yrty8Hjv15ZuBxM9Lw-9" value="" style="endArrow=classic;html=1;rounded=0;fontFamily=Lucida Console;fontSize=16;entryX=0;entryY=0.5;entryDx=0;entryDy=0;" edge="1" parent="1" source="c3yrty8Hjv15ZuBxM9Lw-8" target="c3yrty8Hjv15ZuBxM9Lw-1">
          <mxGeometry width="50" height="50" relative="1" as="geometry">
            <mxPoint x="390" y="370" as="sourcePoint" />
            <mxPoint x="440" y="320" as="targetPoint" />
          </mxGeometry>
        </mxCell>
        <mxCell id="c3yrty8Hjv15ZuBxM9Lw-10" value="5940" style="rounded=0;whiteSpace=wrap;html=1;fontFamily=Lucida Console;fontSize=16;" vertex="1" parent="1">
          <mxGeometry x="388" y="190" width="90" height="20" as="geometry" />
        </mxCell>
        <mxCell id="c3yrty8Hjv15ZuBxM9Lw-11" value="m_pcPic" style="text;html=1;resizable=0;autosize=1;align=center;verticalAlign=middle;points=[];fillColor=none;strokeColor=none;rounded=0;fontFamily=Lucida Console;fontSize=16;" vertex="1" parent="1">
          <mxGeometry x="283" y="185" width="90" height="30" as="geometry" />
        </mxCell>
        <mxCell id="c3yrty8Hjv15ZuBxM9Lw-12" value="" style="endArrow=classic;html=1;rounded=0;fontFamily=Lucida Console;fontSize=16;entryX=0;entryY=0.5;entryDx=0;entryDy=0;" edge="1" parent="1" source="c3yrty8Hjv15ZuBxM9Lw-11">
          <mxGeometry width="50" height="50" relative="1" as="geometry">
            <mxPoint x="588" y="390" as="sourcePoint" />
            <mxPoint x="388" y="200" as="targetPoint" />
          </mxGeometry>
        </mxCell>
        <mxCell id="c3yrty8Hjv15ZuBxM9Lw-13" value="ea60" style="rounded=0;whiteSpace=wrap;html=1;fontFamily=Lucida Console;fontSize=16;" vertex="1" parent="1">
          <mxGeometry x="191.5" y="472.5" width="90" height="20" as="geometry" />
        </mxCell>
        <mxCell id="c3yrty8Hjv15ZuBxM9Lw-15" value="ea60" style="rounded=0;whiteSpace=wrap;html=1;fontFamily=Lucida Console;fontSize=16;" vertex="1" parent="1">
          <mxGeometry x="389.5" y="472.5" width="90" height="20" as="geometry" />
        </mxCell>
        <mxCell id="c3yrty8Hjv15ZuBxM9Lw-17" value="" style="endArrow=classic;html=1;rounded=0;fontFamily=Lucida Console;fontSize=16;entryX=0;entryY=0.5;entryDx=0;entryDy=0;" edge="1" parent="1" target="c3yrty8Hjv15ZuBxM9Lw-13">
          <mxGeometry width="50" height="50" relative="1" as="geometry">
            <mxPoint x="176.5" y="482.5" as="sourcePoint" />
            <mxPoint x="441.5" y="622.5" as="targetPoint" />
          </mxGeometry>
        </mxCell>
        <mxCell id="c3yrty8Hjv15ZuBxM9Lw-18" value="5940" style="rounded=0;whiteSpace=wrap;html=1;fontFamily=Lucida Console;fontSize=16;" vertex="1" parent="1">
          <mxGeometry x="389.5" y="492.5" width="90" height="20" as="geometry" />
        </mxCell>
        <mxCell id="c3yrty8Hjv15ZuBxM9Lw-19" value="m_pcPic" style="text;html=1;resizable=0;autosize=1;align=center;verticalAlign=middle;points=[];fillColor=none;strokeColor=none;rounded=0;fontFamily=Lucida Console;fontSize=16;" vertex="1" parent="1">
          <mxGeometry x="284.5" y="487.5" width="90" height="30" as="geometry" />
        </mxCell>
        <mxCell id="c3yrty8Hjv15ZuBxM9Lw-20" value="" style="endArrow=classic;html=1;rounded=0;fontFamily=Lucida Console;fontSize=16;entryX=0;entryY=0.5;entryDx=0;entryDy=0;" edge="1" parent="1" source="c3yrty8Hjv15ZuBxM9Lw-19">
          <mxGeometry width="50" height="50" relative="1" as="geometry">
            <mxPoint x="589.5" y="692.5" as="sourcePoint" />
            <mxPoint x="389.5" y="502.5" as="targetPoint" />
          </mxGeometry>
        </mxCell>
        <mxCell id="c3yrty8Hjv15ZuBxM9Lw-21" value="m_pcPic" style="text;html=1;resizable=0;autosize=1;align=center;verticalAlign=middle;points=[];fillColor=none;strokeColor=none;rounded=0;fontFamily=Lucida Console;fontSize=16;" vertex="1" parent="1">
          <mxGeometry x="85" y="467.5" width="90" height="30" as="geometry" />
        </mxCell>
      </root>
    </mxGraphModel>
  </diagram>
</mxfile>
